<?xml version="1.0" encoding="UTF-8"?>
<svg xmlns="http://www.w3.org/2000/svg" viewBox="0 0 1254 1254" width="1254" height="1254" role="img" aria-labelledby="title desc">
  <title id="title">AgarthaVision Logo Mark</title>
  <desc id="desc">A blue stylized vision mark with a dark circular lens.</desc>
  <path d="M0 0 C0.84965332 0.28456055 1.69930664 0.56912109 2.57470703 0.86230469 C55.76411256 18.74222375 103.59722754 52.45859493 144.34423828 90.46191406 C146.13664667 92.12693513 147.94112079 93.77829999 149.74609375 95.4296875 C162.31002911 106.98714542 174.32288192 119.09189459 184.94140625 132.48046875 C187.12972671 135.15877367 189.44687302 137.66491199 191.8125 140.1875 C197.45512392 146.32002615 202.33120431 152.95484025 207.25415039 159.66845703 C208.94611439 161.92803697 210.68128752 164.15018668 212.4233551 166.37121582 C218.19912219 173.76444385 223.48350777 181.43375285 228.65942383 189.25585938 C230.059189 191.36999922 231.46750185 193.47824617 232.87695312 195.5859375 C241.41725033 208.40519621 249.30500337 221.5501308 256.8125 235 C257.40651611 236.06395996 258.00053223 237.12791992 258.61254883 238.22412109 C280.8461511 278.24875158 299.25430445 319.67561491 314 363 C314.26941406 363.79043701 314.53882813 364.58087402 314.81640625 365.39526367 C330.97758882 412.97936462 343.02108183 462.20934516 350 512 C350.10962067 512.77076874 350.21924133 513.54153748 350.33218384 514.33566284 C352.52316063 529.87328975 354.06784766 545.41243308 355.1875 561.0625 C355.2743808 562.261026 355.3612616 563.459552 355.45077515 564.69439697 C356.87936436 584.93481742 357.36110186 605.09188669 357.3125 625.375 C357.30867813 627.32927414 357.30867813 627.32927414 357.30477905 629.32302856 C357.23101232 651.13431338 356.30705215 672.42581466 353.52587891 694.06225586 C353.12423729 697.19344611 352.73521391 700.326023 352.34765625 703.45898438 C350.9342276 714.72852063 349.27729334 725.87123536 347 737 C346.69932617 738.51533325 346.69932617 738.51533325 346.39257812 740.0612793 C343.66805846 753.62419098 340.28737691 766.84968196 336 780 C335.68047363 780.99370605 335.36094727 781.98741211 335.03173828 783.01123047 C324.06147511 816.87051779 309.1165109 849.30192011 284 875 C283.14019531 875.92167969 282.28039062 876.84335938 281.39453125 877.79296875 C264.37363125 895.61840169 243.54895564 906.37035603 220 913 C219.21351074 913.2259082 218.42702148 913.45181641 217.61669922 913.68457031 C195.8354876 919.68396475 170.66255025 919.25068679 149 913 C148.13729492 912.75330566 147.27458984 912.50661133 146.38574219 912.25244141 C124.03048842 905.68140056 102.89406516 895.25367641 86 879 C84.63068551 877.82666546 83.25592026 876.65965311 81.875 875.5 C63.08592261 859.00319006 51.17373403 835.97466717 45 812 C44.72941772 810.99223511 44.72941772 810.99223511 44.45336914 809.96411133 C39.48217905 790.02349488 42.76829851 769.77774307 53.2019043 752.25219727 C57.00828622 746.24683277 61.52610853 740.83295533 66.13671875 735.43359375 C77.26738416 722.24007156 86.95373843 708.26794757 95 693 C95.55010742 691.96359375 95.55010742 691.96359375 96.11132812 690.90625 C105.74435331 672.456257 111.60966676 652.4730268 115 632 C115.1750708 631.1121582 115.3501416 630.22431641 115.53051758 629.30957031 C116.11850881 625.16458378 116.18158473 621.11110273 116.203125 616.9296875 C116.20882507 616.05337677 116.21452515 615.17706604 116.22039795 614.27420044 C116.22982282 612.41669915 116.23637192 610.55918134 116.24023438 608.70166016 C116.24980206 605.93229501 116.28078986 603.16371811 116.3125 600.39453125 C116.40786162 584.50897136 114.96240647 568.76248127 110.3125 553.5 C109.92795654 552.20811768 109.92795654 552.20811768 109.53564453 550.89013672 C102.01243919 526.33342778 90.57740634 503.42592536 75 483 C74.33871094 482.10796875 73.67742187 481.2159375 72.99609375 480.296875 C62.44616298 466.53411435 49.82846373 454.3108474 36.375 443.4375 C32.2812338 440.12678894 28.53937691 436.65769516 24.87890625 432.87890625 C23.07548125 431.07548125 21.20605886 429.44723502 19.25 427.8125 C8.85794337 418.82367606 0.22883564 407.94318723 -8 397 C-8.62986816 396.17145508 -8.62986816 396.17145508 -9.27246094 395.32617188 C-42.02836824 352.00961687 -57.51866944 299.60269619 -57.40405273 245.73364258 C-57.40977012 243.27389214 -57.4167396 240.81414435 -57.42485046 238.35440063 C-57.44079711 232.42425442 -57.44291727 226.49420643 -57.43763756 220.56405029 C-57.43356626 215.74244914 -57.43507408 210.92087911 -57.44038582 206.0992794 C-57.44113424 205.40839625 -57.44188266 204.7175131 -57.44265376 204.00569409 C-57.44418546 202.60153661 -57.44572381 201.19737914 -57.44726873 199.79322167 C-57.46092546 186.69398523 -57.45560114 173.5948089 -57.44408352 160.4955739 C-57.43412557 148.53083162 -57.447148 136.56624341 -57.47101771 124.60152487 C-57.49542709 112.27236044 -57.50501409 99.94326775 -57.49836498 87.61407965 C-57.49488105 80.70920959 -57.49705181 73.80445835 -57.51461601 66.8996067 C-57.5309033 60.41755457 -57.52612855 53.93572505 -57.50731087 47.45367813 C-57.50362712 45.07933928 -57.50672714 42.70497849 -57.51719666 40.33065987 C-57.53042035 37.08348854 -57.51884648 33.83729401 -57.50120544 30.59016418 C-57.51081045 29.65698909 -57.52041546 28.723814 -57.53031152 27.76236087 C-57.42216174 18.0508536 -54.12703365 10.03863961 -47.375 3.05078125 C-32.80828758 -9.52738326 -16.47380899 -5.79541181 0 0 Z " fill="#036BFC" transform="translate(707,179)"/>
  <path d="M0 0 C8.72396032 5.58153893 14.01015983 11.65547948 17.27734375 21.45703125 C17.36974241 22.83654038 17.40819335 24.22006327 17.41156483 25.60265923 C17.41602267 26.45114681 17.42048051 27.2996344 17.42507344 28.17383373 C17.4247969 29.57265008 17.4247969 29.57265008 17.42451477 30.99972534 C17.42819146 31.99046464 17.43186815 32.98120394 17.43565625 34.00196564 C17.44671213 37.33839243 17.45054043 40.67478809 17.4543457 44.01123047 C17.46060975 46.39808756 17.4672565 48.78494367 17.47425842 51.17179871 C17.49351455 58.35503563 17.50409979 65.53827316 17.51298621 72.72152871 C17.51737511 76.11482057 17.5227411 79.50811088 17.52797508 82.90140152 C17.54500384 94.20602277 17.55948675 105.51064308 17.56672382 116.81527519 C17.56863342 119.75022254 17.57055377 122.68516987 17.57250977 125.62011719 C17.57299351 126.34949553 17.57347725 127.07887387 17.57397565 127.83035459 C17.58223337 139.58293323 17.60748995 151.33540866 17.64009044 163.08794247 C17.67338675 175.19174229 17.69119354 187.2954902 17.69436806 199.39933598 C17.69651466 206.17934347 17.70509701 212.95919991 17.73082924 219.73916245 C17.92716226 275.05790584 17.92716226 275.05790584 13.27734375 297.45703125 C13.06912302 298.46270519 12.86090229 299.46837914 12.64637184 300.50452805 C11.3680159 306.54335457 9.91460605 312.50581521 8.27734375 318.45703125 C8.09623047 319.13910645 7.91511719 319.82118164 7.72851562 320.52392578 C-1.92158068 356.40910861 -22.30933451 389.92537707 -47.4609375 417.01171875 C-49.41314505 419.12239565 -51.29571903 421.26930682 -53.16015625 423.45703125 C-60.13180496 431.44095683 -67.66416233 438.55403471 -75.9296875 445.17578125 C-81.07226219 449.37614995 -85.91690744 453.88076668 -90.72265625 458.45703125 C-91.70226318 459.38563965 -91.70226318 459.38563965 -92.70166016 460.33300781 C-129.67753221 495.61762219 -155.6822193 544.60814554 -157.0390625 596.3515625 C-157.53055333 620.46268962 -156.03488147 643.60447038 -147.72265625 666.45703125 C-147.26487209 667.77838523 -146.80785692 669.10000584 -146.3515625 670.421875 C-137.20243148 696.37270916 -122.27185583 718.80498003 -104.8203125 739.8671875 C-88.35674678 760.19371277 -82.76621522 780.44330906 -84.72265625 806.45703125 C-87.9675957 831.53156337 -100.34879744 854.4320227 -117.72265625 872.45703125 C-118.85488403 873.80516055 -119.98048016 875.15890274 -121.09765625 876.51953125 C-139.88401779 897.97714699 -169.35718404 911.03646144 -196.71923828 917.01513672 C-198.1003732 917.31977408 -199.47635179 917.64844324 -200.84716797 917.99658203 C-208.86636264 919.87820896 -216.9095099 919.8551986 -225.09765625 919.83203125 C-225.85176788 919.83115509 -226.60587952 919.83027893 -227.38284302 919.82937622 C-265.7127348 919.68258456 -299.28684331 903.79022124 -326.33105469 876.88769531 C-330.12610948 872.98611266 -333.4687721 868.81392697 -336.72265625 864.45703125 C-337.17995117 863.84762695 -337.63724609 863.23822266 -338.10839844 862.61035156 C-362.18856541 830.27594146 -376.42461523 791.68024576 -384.72265625 752.45703125 C-384.94405273 751.42143066 -385.16544922 750.38583008 -385.39355469 749.31884766 C-388.81447113 733.0908439 -391.33603525 716.77223121 -393.26855469 700.30273438 C-393.56101757 697.82591964 -393.86542839 695.35047171 -394.18457031 692.87695312 C-401.36012243 636.37141741 -397.81614021 576.64781161 -389.72265625 520.45703125 C-389.5721582 519.38598145 -389.42166016 518.31493164 -389.26660156 517.21142578 C-388.19047613 509.60846896 -386.98354454 502.03136021 -385.72265625 494.45703125 C-385.61048767 493.77505676 -385.49831909 493.09308228 -385.38275146 492.39044189 C-378.38641165 449.86467657 -368.76666291 407.69295071 -354.57861328 366.94824219 C-353.570273 364.01352905 -352.59835806 361.06759197 -351.625 358.12109375 C-330.98145645 296.19908432 -301.49286877 235.04116824 -262.72265625 182.45703125 C-261.47070817 180.70131718 -260.22725362 178.93977682 -258.98388672 177.17797852 C-251.24912388 166.24061063 -243.08420219 155.74821684 -234.37109375 145.57421875 C-231.9532665 142.74558715 -229.61495199 139.8587624 -227.28515625 136.95703125 C-224.08066523 133.03202828 -220.76666708 129.23204812 -217.328125 125.51171875 C-216.81183533 124.9531015 -216.29554565 124.39448425 -215.76361084 123.81893921 C-210.07832912 117.7083054 -204.20551954 111.78880903 -198.29394531 105.89794922 C-196.45649865 104.0659213 -194.62453975 102.2285252 -192.79296875 100.390625 C-186.93873976 94.53279195 -181.06125403 88.79547021 -174.72265625 83.45703125 C-173.6389471 82.50842387 -172.55687171 81.55794631 -171.4765625 80.60546875 C-162.53276025 72.80399096 -153.23844605 65.54536669 -143.72265625 58.45703125 C-143.0059375 57.91933105 -142.28921875 57.38163086 -141.55078125 56.82763672 C-112.86313942 35.36995138 -80.57679937 16.42721155 -46.72265625 4.45703125 C-45.41530518 3.9767749 -45.41530518 3.9767749 -44.08154297 3.48681641 C-30.12968364 -1.60336116 -14.35028613 -6.94210423 0 0 Z " fill="#026BFC" transform="translate(586.72265625,176.54296875)"/>
  <path d="M0 0 C2.13492855 -0.00963742 4.26886327 -0.0407171 6.40356445 -0.07226562 C16.29639017 -0.1479924 25.4552138 1.09391074 35.10083008 3.24023438 C36.36842163 3.50803711 36.36842163 3.50803711 37.66162109 3.78125 C62.50037177 9.16944242 93.01713179 23.72016972 108.10083008 45.24023438 C107.77083008 45.90023437 107.44083008 46.56023438 107.10083008 47.24023438 C106.42600586 46.56927734 106.42600586 46.56927734 105.73754883 45.88476562 C95.95724497 36.69245599 84.343614 32.71029821 71.05004883 32.93164062 C59.58700091 33.8273684 48.88942743 38.35418589 40.78051758 46.59960938 C36.47203529 51.71891305 33.35436009 56.94820009 31.10083008 63.24023438 C30.5671582 64.61888672 30.5671582 64.61888672 30.02270508 66.02539062 C27.13424696 76.09827635 28.48652158 86.968493 33.10083008 96.24023438 C33.73698242 97.53380859 33.73698242 97.53380859 34.38598633 98.85351562 C40.08897544 109.3222338 49.41816856 116.96181759 60.85473633 120.35351562 C72.25320534 123.03769262 84.85604553 122.22767393 95.12426758 116.57617188 C101.85931882 112.40210308 106.86249867 107.93988846 111.10083008 101.24023438 C111.77629883 100.21929688 112.45176758 99.19835937 113.14770508 98.14648438 C115.77197476 93.49715325 116.48172199 88.51382097 117.35083008 83.30273438 C117.60993164 81.84770508 117.60993164 81.84770508 117.87426758 80.36328125 C118.29501311 77.99074393 118.7035136 75.61678735 119.10083008 73.24023438 C130.3025199 78.52228446 137.42647109 91.92189808 141.63989258 103.16601562 C149.59298038 126.10448384 149.41395365 152.71216815 144.10083008 176.24023438 C143.92922363 177.00126465 143.75761719 177.76229492 143.58081055 178.54638672 C141.02723916 189.4384298 137.28692412 199.34395273 132.10083008 209.24023438 C131.5980957 210.21839111 131.5980957 210.21839111 131.08520508 211.21630859 C125.78025448 221.45258687 119.57158207 230.47158641 112.10083008 239.24023438 C111.66013184 239.76601074 111.21943359 240.29178711 110.76538086 240.83349609 C104.18279888 248.62666786 96.90067375 255.00547874 88.70092773 261.05761719 C87.30514821 262.08922475 85.9260648 263.14334643 84.55004883 264.20117188 C77.29279126 269.5922775 69.26160106 273.42765713 61.10083008 277.24023438 C60.1134082 277.70429687 59.12598633 278.16835938 58.10864258 278.64648438 C51.8429525 281.4154579 45.3934863 283.49022809 38.85083008 285.49023438 C38.01068359 285.74885254 37.17053711 286.0074707 36.30493164 286.27392578 C35.48992187 286.51546387 34.67491211 286.75700195 33.83520508 287.00585938 C32.75577637 287.32731934 32.75577637 287.32731934 31.65454102 287.65527344 C25.40044582 289.08785585 19.17581309 289.40554347 12.78833008 289.44335938 C12.01634277 289.44905945 11.24435547 289.45475952 10.44897461 289.46063232 C8.82203513 289.47001977 7.19507717 289.47659118 5.56811523 289.48046875 C3.13465198 289.49010051 0.70206205 289.52115278 -1.73120117 289.55273438 C-15.71482037 289.64869943 -28.79340302 287.74945223 -42.08666992 283.24023438 C-43.39414185 282.79683716 -43.39414185 282.79683716 -44.72802734 282.34448242 C-66.714701 274.54034559 -85.37968055 261.52305485 -101.89916992 245.24023438 C-102.73706055 244.41523437 -103.57495117 243.59023438 -104.43823242 242.74023438 C-133.38015841 212.60387969 -143.78929144 173.81089294 -142.98803711 132.98632812 C-142.13554184 106.64328736 -130.45783014 80.14092386 -114.89916992 59.24023438 C-114.05999023 58.09167969 -114.05999023 58.09167969 -113.20385742 56.91992188 C-103.06519938 43.62116263 -90.7992888 32.4593646 -76.89916992 23.24023438 C-76.30700684 22.8411084 -75.71484375 22.44198242 -75.10473633 22.03076172 C-52.63268815 7.06789178 -26.78377225 0.07269145 0 0 Z " fill="#1D1D1E" transform="translate(623.899169921875,640.759765625)"/>
  <path d="M0 0 C6.85274128 1.16251861 12.09174546 7.62615001 16 13 C15.67 13.66 15.34 14.32 15 15 C14.5153125 14.54109375 14.030625 14.0821875 13.53125 13.609375 C8.94368144 9.40998532 4.67866491 6.53511826 -1 4 C-0.67 2.68 -0.34 1.36 0 0 Z " fill="#3C3A3C" transform="translate(716,673)"/>
  <path d="M0 0 C0.66 0.66 1.32 1.32 2 2 C0.75482035 3.13033298 -0.49636652 4.25405036 -1.75 5.375 C-2.44609375 6.00148438 -3.1421875 6.62796875 -3.859375 7.2734375 C-5.89847966 8.91811681 -7.53640611 10.11737384 -10 11 C-12.25 10.625 -12.25 10.625 -14 10 C-13.24074219 9.52949219 -12.48148438 9.05898438 -11.69921875 8.57421875 C-10.70535156 7.95160156 -9.71148438 7.32898438 -8.6875 6.6875 C-7.20830078 5.76517578 -7.20830078 5.76517578 -5.69921875 4.82421875 C-3.49827965 3.33675339 -1.76671012 1.9596614 0 0 Z " fill="#2A2B2C" transform="translate(731,748)"/>
  <path d="M0 0 C0.91787677 3.02968349 1.04344865 5.42271419 0.6875 8.5625 C0.60886719 9.32691406 0.53023438 10.09132813 0.44921875 10.87890625 C0 13 0 13 -2 16 C-3.13314263 11.89517207 -2.78328091 9.24049263 -1.5625 5.1875 C-1.27503906 4.21167969 -0.98757813 3.23585938 -0.69140625 2.23046875 C-0.46324219 1.49441406 -0.23507812 0.75835938 0 0 Z " fill="#464647" transform="translate(487,742)"/>
  <path d="M0 0 C0.66 0.33 1.32 0.66 2 1 C0.9015258 2.46262592 -0.2040036 3.91995503 -1.3125 5.375 C-1.92738281 6.18710937 -2.54226563 6.99921875 -3.17578125 7.8359375 C-5 10 -5 10 -8 12 C-8 8.03869629 -6.65122875 7.17085599 -4 4.3125 C-3.2575 3.50425781 -2.515 2.69601562 -1.75 1.86328125 C-1.1725 1.24839844 -0.595 0.63351562 0 0 Z " fill="#1A77FA" transform="translate(365,307)"/>
  <path d="M0 0 C0.33 0 0.66 0 1 0 C1 4.29 1 8.58 1 13 C0.01 13.495 0.01 13.495 -1 14 C-1.93385816 11.19842552 -2.16354595 9.34552197 -2.1875 6.4375 C-2.20167969 5.65246094 -2.21585937 4.86742187 -2.23046875 4.05859375 C-2 2 -2 2 0 0 Z " fill="#EEEEEE" transform="translate(480,779)"/>
  <path d="M0 0 C-0.33 0.99 -0.66 1.98 -1 3 C-1.78375 3.0825 -2.5675 3.165 -3.375 3.25 C-4.24125 3.4975 -5.1075 3.745 -6 4 C-6.69937532 5.31647119 -7.36729133 6.65022151 -8 8 C-10.125 8.75 -10.125 8.75 -12 9 C-5 0 -5 0 0 0 Z " fill="#197AF9" transform="translate(669,177)"/>
  <path d="M0 0 C0.66 0.66 1.32 1.32 2 2 C-0.64 4.64 -3.28 7.28 -6 10 C-6.66 9.34 -7.32 8.68 -8 8 C-5.36 5.36 -2.72 2.72 0 0 Z " fill="#0C6FF9" transform="translate(385,286)"/>
  <path d="M0 0 C0.66 0.66 1.32 1.32 2 2 C0.02 4.31 -1.96 6.62 -4 9 C-4.66 8.34 -5.32 7.68 -6 7 C-4.02 4.69 -2.04 2.38 0 0 Z " fill="#1B77F9" transform="translate(772,916)"/>
  <path d="M0 0 C0.66 0.99 1.32 1.98 2 3 C0.35 4.98 -1.3 6.96 -3 9 C-3.66 8.67 -4.32 8.34 -5 8 C-3.62845496 5.04590299 -2.01136276 2.55991624 0 0 Z " fill="#2D2D2F" transform="translate(512,696)"/>
  <path d="M0 0 C2 4 2 4 2 6 C1.34 6 0.68 6 0 6 C0 7.98 0 9.96 0 12 C-0.99 12 -1.98 12 -3 12 C-2.01 8.04 -1.02 4.08 0 0 Z " fill="#DFDEDE" transform="translate(765,824)"/>
  <path d="M0 0 C1.98 0.99 1.98 0.99 4 2 C4 2.99 4 3.98 4 5 C3.34 5 2.68 5 2 5 C2 5.66 2 6.32 2 7 C1.34 7 0.68 7 0 7 C0 4.69 0 2.38 0 0 Z " fill="#313031" transform="translate(743,714)"/>
  <path d="M0 0 C0.33 0.66 0.66 1.32 1 2 C0.22265625 3.7265625 0.22265625 3.7265625 -0.9375 5.625 C-1.618125 6.73875 -2.29875 7.8525 -3 9 C-3.99 9 -4.98 9 -6 9 C-4.02 6.03 -2.04 3.06 0 0 Z " fill="#1C7AFA" transform="translate(785,899)"/>
  <path d="M0 0 C2.66735273 2.48952921 4.55746343 4.63408134 6 8 C5.01 8 4.02 8 3 8 C0.75 5.6875 0.75 5.6875 -1 3 C-0.67 2.01 -0.34 1.02 0 0 Z " fill="#1B7AFB" transform="translate(910,334)"/>
  <path d="M0 0 C5.445 1.485 5.445 1.485 11 3 C9.02 3.99 9.02 3.99 7 5 C6.01 4.67 5.02 4.34 4 4 C4 3.34 4 2.68 4 2 C3.01 2.33 2.02 2.66 1 3 C0.67 2.01 0.34 1.02 0 0 Z " fill="#CFCFCF" transform="translate(578,922)"/>
  <path d="M0 0 C2.64752004 2.57784846 4.94432065 4.91648098 7 8 C6.01 8 5.02 8 4 8 C0 3.77142857 0 3.77142857 0 0 Z " fill="#207DFB" transform="translate(871,289)"/>
  <path d="M0 0 C2 3 2 3 1.875 5.0625 C1 7 1 7 -3 9 C-2.01 6.03 -1.02 3.06 0 0 Z " fill="#353638" transform="translate(740,731)"/>
  <path d="M0 0 C0.66 0.33 1.32 0.66 2 1 C0.35 2.98 -1.3 4.96 -3 7 C-3.99 6.67 -4.98 6.34 -6 6 C-4.02 4.02 -2.04 2.04 0 0 Z " fill="#2D2E2F" transform="translate(532,675)"/>
  <path d="M0 0 C1.9375 0.3125 1.9375 0.3125 4 1 C4.33 1.99 4.66 2.98 5 4 C3.125 4.625 3.125 4.625 1 5 C0.34 4.34 -0.32 3.68 -1 3 C-0.67 2.01 -0.34 1.02 0 0 Z " fill="#312E31" transform="translate(716,673)"/>
  <path d="M0 0 C0.75 1.6875 0.75 1.6875 1 4 C-0.9375 6.75 -0.9375 6.75 -3 9 C-3 4.72290301 -2.29379749 3.44069624 0 0 Z " fill="#1976FA" transform="translate(765,924)"/>
  <path d="M0 0 C1 4 1 4 -0.4375 6.75 C-1.2109375 7.86375 -1.2109375 7.86375 -2 9 C-2.99 8.67 -3.98 8.34 -5 8 C-3.35 5.36 -1.7 2.72 0 0 Z " fill="#1373FB" transform="translate(793,887)"/>
  <path d="M0 0 C1.98 1.65 3.96 3.3 6 5 C5.34 5.66 4.68 6.32 4 7 C2.35 5.02 0.7 3.04 -1 1 C-0.67 0.67 -0.34 0.34 0 0 Z " fill="#1B7CFA" transform="translate(787,1050)"/>
  <path d="M0 0 C0 3.90838866 -1.50567876 5.11594107 -4 8 C-4.66 7.67 -5.32 7.34 -6 7 C-4.02 4.69 -2.04 2.38 0 0 Z " fill="#D6E7FB" transform="translate(473,1044)"/>
  <path d="M0 0 C0.33 0.99 0.66 1.98 1 3 C-0.28965176 4.37562854 -1.62689293 5.70766393 -3 7 C-3.66 7 -4.32 7 -5 7 C-3.70700306 4.11562221 -2.34058637 2.12780579 0 0 Z " fill="#237BF9" transform="translate(373,298)"/>
</svg>
